<?xml version="1.0" encoding="UTF-8" standalone="no"?>
<svg
   width="800"
   height="800"
   version="1.1"
   xmlns:xlink="http://www.w3.org/1999/xlink"
   xmlns="http://www.w3.org/2000/svg"
   xmlns:svg="http://www.w3.org/2000/svg">
  <defs
     id="defs41">
    <linearGradient
       id="linearGradient3390">
      <stop
         style="stop-color:#df49d0;stop-opacity:1;"
         offset="0"
         id="stop3386" />
      <stop
         style="stop-color:#d547e1;stop-opacity:1"
         offset="1"
         id="stop3388" />
    </linearGradient>
    <linearGradient
       xlink:href="#svg_10"
       id="linearGradient123"
       x1="13.50052"
       y1="4.6393964"
       x2="13.50052"
       y2="27.007492"
       gradientTransform="matrix(29.153865,0,0,24.489245,6.4077034,5.8251039)"
       gradientUnits="userSpaceOnUse" />
    <defs
       id="defs26">
      <linearGradient
         id="svg_10"
         y2="97.6223693%"
         x2="50%"
         y1="0%"
         x1="50%">
        <stop
           offset="0%"
           stop-color="#EE4DB7"
           id="stop21" />
        <stop
           offset="100%"
           stop-color="#C743F9"
           id="stop23" />
      </linearGradient>
    </defs>
    <linearGradient
       xlink:href="#linearGradient3390"
       id="linearGradient3392"
       x1="253.04025"
       y1="333.20007"
       x2="253.04025"
       y2="466.79987"
       gradientUnits="userSpaceOnUse"
       gradientTransform="matrix(1.1300665,0,0,1.1152733,-36.912058,-42.409098)" />
  </defs>
  <g
     id="g5254">
    <path
       stroke="null"
       id="svg_12"
       d="m 186.24036,119.44042 c -22.0974,0 -40.07993,17.98253 -40.07993,40.07993 v 0 66.7999 h -40.07994 c -22.097403,0 -40.079935,17.98253 -40.079935,40.07993 v 0 320.63949 c 0,51.56951 41.950335,93.51985 93.519845,93.51985 v 0 h 534.39914 c 22.09741,0 40.07994,-17.98254 40.07994,-40.07994 v 0 -480.95923 c 0,-22.0974 -17.98253,-40.07993 -40.07994,-40.07993 v 0 z M 172.88038,587.03967 V 159.52035 c 0,-7.34798 5.98527,-13.35997 13.35998,-13.35997 v 0 h 507.67918 c 7.37471,0 13.35998,6.01199 13.35998,13.35997 v 0 480.95923 c 0,7.34799 -5.98527,13.35998 -13.35998,13.35998 v 0 H 159.5204 c -36.8201,0 -66.799888,-29.95307 -66.799888,-66.79989 v 0 -320.63949 c 0,-7.34799 5.985271,-13.35998 13.359978,-13.35998 v 0 h 40.07994 v 333.99947 c 0,7.3747 5.95855,13.35997 13.35997,13.35997 v 0 c 7.40143,0 13.35998,-5.98527 13.35998,-13.35997 z M 560.31976,199.60029 c -7.37471,0 -13.35998,5.95855 -13.35998,13.35998 v 0 c 0,7.37471 5.98527,13.35998 13.35998,13.35998 v 0 h 80.15987 c 7.40143,0 13.35998,-5.98527 13.35998,-13.35998 v 0 c 0,-7.40143 -5.95855,-13.35998 -13.35998,-13.35998 v 0 z m -320.63948,0 c -7.37471,0 -13.35998,5.95855 -13.35998,13.35998 v 0 c 0,7.37471 5.98527,13.35998 13.35998,13.35998 v 0 h 240.47961 c 7.40143,0 13.35998,-5.98527 13.35998,-13.35998 v 0 c 0,-7.40143 -5.95855,-13.35998 -13.35998,-13.35998 v 0 z m 0,53.43991 c -7.37471,0 -13.35998,5.95855 -13.35998,13.35998 v 0 c 0,7.40143 5.98527,13.35998 13.35998,13.35998 v 0 h 400.79935 c 7.40143,0 13.35998,-5.95855 13.35998,-13.35998 v 0 c 0,-7.40143 -5.95855,-13.35998 -13.35998,-13.35998 v 0 z m 213.75965,53.43992 c -7.37471,0 -13.35998,5.98527 -13.35998,13.35998 v 0 c 0,7.40142 5.98527,13.35997 13.35998,13.35997 v 0 h 187.0397 c 7.40143,0 13.35998,-5.95855 13.35998,-13.35997 v 0 c 0,-7.37471 -5.95855,-13.35998 -13.35998,-13.35998 v 0 z m -213.75965,0 c -7.37471,0 -13.35998,5.98527 -13.35998,13.35998 v 0 160.31974 c 0,7.40143 5.98527,13.35998 13.35998,13.35998 v 0 h 133.59978 c 7.37471,0 13.35998,-5.95855 13.35998,-13.35998 v 0 -160.31974 c 0,-7.37471 -5.98527,-13.35998 -13.35998,-13.35998 v 0 z m 13.35997,160.31974 H 359.9468 V 333.20007 H 253.04025 Z M 453.43993,359.92003 c -7.37471,0 -13.35998,5.98527 -13.35998,13.35998 v 0 c 0,7.37471 5.98527,13.35998 13.35998,13.35998 v 0 h 187.0397 c 7.40143,0 13.35998,-5.98527 13.35998,-13.35998 v 0 c 0,-7.37471 -5.95855,-13.35998 -13.35998,-13.35998 v 0 z m 0,53.43992 c -7.37471,0 -13.35998,5.95855 -13.35998,13.35997 v 0 c 0,7.37471 5.98527,13.35998 13.35998,13.35998 v 0 h 187.0397 c 7.40143,0 13.35998,-5.98527 13.35998,-13.35998 v 0 c 0,-7.40142 -5.95855,-13.35997 -13.35998,-13.35997 v 0 z m 0,53.43991 c -7.37471,0 -13.35998,5.95855 -13.35998,13.35998 v 0 c 0,7.40143 5.98527,13.35998 13.35998,13.35998 v 0 h 187.0397 c 7.40143,0 13.35998,-5.95855 13.35998,-13.35998 v 0 c 0,-7.40143 -5.95855,-13.35998 -13.35998,-13.35998 v 0 z m -213.75965,53.43991 c -7.37471,0 -13.35998,5.98527 -13.35998,13.35998 v 0 c 0,7.40143 5.98527,13.35998 13.35998,13.35998 v 0 h 400.79935 c 7.40143,0 13.35998,-5.95855 13.35998,-13.35998 v 0 c 0,-7.37471 -5.95855,-13.35998 -13.35998,-13.35998 v 0 z"
       style="fill:url(#linearGradient123);fill-rule:evenodd;stroke-width:26.72" />
    <rect
       style="fill:url(#linearGradient3392);fill-opacity:1;stroke-width:1.12265"
       id="rect186"
       width="120.81151"
       height="149.00031"
       x="249.04025"
       y="329.20007" />
  </g>

  <text
     stroke="#000000"
     transform="scale(0.81321343,1.2296895)"
     font-weight="bold"
     xml:space="preserve"
     text-anchor="start"
     font-family="'Palatino Linotype', 'Book Antiqua', Palatino, serif"
     font-size="84.8486px"
     id="svg_15"
     y="330.54523"
     x="315.9234"
     stroke-width="0"
     fill="#000000"
     style="fill:#ffffff">&lt;</text>
  <text
     stroke="#000000"
     transform="scale(0.81321343,1.2296895)"
     font-weight="bold"
     xml:space="preserve"
     text-anchor="start"
     font-family="'Palatino Linotype', 'Book Antiqua', Palatino, serif"
     font-size="84.8486px"
     id="svg_16"
     y="364.94943"
     x="385.19717"
     stroke-width="0"
     fill="#000000"
     style="fill:#ffffff">&gt;</text>
  <text
     stroke="#000000"
     transform="scale(1.3321048,0.75069166)"
     font-weight="bold"
     xml:space="preserve"
     text-anchor="start"
     font-family="'Palatino Linotype', 'Book Antiqua', Palatino, serif"
     font-size="98.0113px"
     id="svg_17"
     y="562.21045"
     x="215.58102"
     stroke-width="0"
     fill="#000000"
     style="fill:#ffffff">/</text>
</svg>
